<svg width="16" height="16" viewBox="0 0 16 16" fill="none" xmlns="http://www.w3.org/2000/svg">
<path d="M2.44444 8.86111V3.44444C2.44444 3.06135 2.59663 2.69395 2.86751 2.42307C3.1384 2.15218 3.5058 2 3.88889 2H12.5556C12.9386 2 13.306 2.15218 13.5769 2.42307C13.8478 2.69395 14 3.06135 14 3.44444V12.1111C14 12.4942 13.8478 12.8616 13.5769 13.1325C13.306 13.4034 12.9386 13.5556 12.5556 13.5556H9.30556M2.44444 6.33333H14M6.77778 2V9.22222M1 12.8333H7.13889M7.13889 12.8333L4.97222 10.6667M7.13889 12.8333L4.97222 15" stroke="#009646" stroke-linecap="round" stroke-linejoin="round"/>
</svg>
