<svg xmlns="http://www.w3.org/2000/svg" viewBox="0 0 522 1038" width="522" height="1038">
  <circle cx="20.5" cy="22.0" r="10" fill="black" />
  <circle cx="116.0" cy="22.0" r="10" fill="black" />
  <circle cx="211.0" cy="22.0" r="10" fill="black" />
  <circle cx="307.0" cy="22.0" r="10" fill="black" />
  <circle cx="403.0" cy="22.0" r="10" fill="black" />
  <circle cx="495.1" cy="25.1" r="10" fill="black" />
  <circle cx="430.0" cy="93.2" r="10" fill="black" />
  <circle cx="20.5" cy="112.5" r="10" fill="black" />
  <circle cx="497.5" cy="112.5" r="10" fill="black" />
  <circle cx="367.2" cy="158.8" r="10" fill="black" />
  <circle cx="20.5" cy="202.5" r="10" fill="black" />
  <circle cx="497.5" cy="202.5" r="10" fill="black" />
  <circle cx="304.3" cy="224.6" r="10" fill="black" />
  <circle cx="241.5" cy="290.2" r="10" fill="black" />
  <circle cx="20.5" cy="293.5" r="10" fill="black" />
  <circle cx="497.5" cy="293.5" r="10" fill="black" />
  <circle cx="178.6" cy="356.0" r="10" fill="black" />
  <circle cx="20.6" cy="384.0" r="10" fill="black" />
  <circle cx="497.6" cy="384.0" r="10" fill="black" />
  <circle cx="115.7" cy="421.9" r="10" fill="black" />
  <circle cx="20.5" cy="474.5" r="10" fill="black" />
  <circle cx="497.5" cy="474.5" r="10" fill="black" />
  <circle cx="52.9" cy="487.5" r="10" fill="black" />
  <circle cx="29.5" cy="529.5" r="10" fill="black" />
  <circle cx="118.5" cy="529.5" r="10" fill="black" />
  <circle cx="208.5" cy="529.5" r="10" fill="black" />
  <circle cx="297.5" cy="529.5" r="10" fill="black" />
  <circle cx="387.0" cy="529.5" r="10" fill="black" />
  <circle cx="484.6" cy="534.7" r="10" fill="black" />
  <circle cx="20.5" cy="565.5" r="10" fill="black" />
  <circle cx="497.5" cy="565.5" r="10" fill="black" />
  <circle cx="429.7" cy="603.8" r="10" fill="black" />
  <circle cx="20.5" cy="655.5" r="10" fill="black" />
  <circle cx="497.5" cy="655.5" r="10" fill="black" />
  <circle cx="366.5" cy="667.6" r="10" fill="black" />
  <circle cx="303.2" cy="731.4" r="10" fill="black" />
  <circle cx="20.5" cy="746.5" r="10" fill="black" />
  <circle cx="497.5" cy="746.5" r="10" fill="black" />
  <circle cx="239.9" cy="795.2" r="10" fill="black" />
  <circle cx="20.5" cy="836.5" r="10" fill="black" />
  <circle cx="497.5" cy="836.5" r="10" fill="black" />
  <circle cx="176.6" cy="859.0" r="10" fill="black" />
  <circle cx="113.3" cy="922.8" r="10" fill="black" />
  <circle cx="20.5" cy="927.5" r="10" fill="black" />
  <circle cx="497.5" cy="927.5" r="10" fill="black" />
  <circle cx="50.0" cy="986.5" r="10" fill="black" />
  <circle cx="20.5" cy="1017.5" r="10" fill="black" />
  <circle cx="116.0" cy="1017.5" r="10" fill="black" />
  <circle cx="211.0" cy="1017.5" r="10" fill="black" />
  <circle cx="307.0" cy="1017.5" r="10" fill="black" />
  <circle cx="403.0" cy="1017.5" r="10" fill="black" />
  <circle cx="497.5" cy="1017.5" r="10" fill="black" />
</svg>