<?xml version="1.0" encoding="UTF-8"?>
<!-- Generator: visioncortex VTracer 0.6.12 -->
<svg version="1.1" xmlns="http://www.w3.org/2000/svg" width="522" height="1038">
<path d="M0 0 C6.269999999999982 0 12.54000000000002 0 19 0 C19.329999999999984 3.9600000000000364 19.660000000000025 7.919999999999959 20 12 C22.310000000000002 10.019999999999982 24.620000000000005 8.039999999999964 27 6 C29.036604261151922 7.902026887066995 31.053313363016343 9.819384907479389 33.0625 11.75 C33.64322265625003 12.288828125000009 34.22394531250001 12.827656250000018 34.822265625 13.3828125 C36.47265625 14.984375 36.47265625 14.984375 39 18 C38.58968002486364 22.453051519637825 35.51716995100793 24.820276526007433 32.4375 27.75 C32.177431640625 28.003300781250005 32.177431640625 28.003300781250005 30.861328125 29.28515625 C29.58089915928184 30.530344051524025 28.29132445522987 31.766115018067012 27 33 C25.989374999999995 32.15437499999996 24.97874999999999 31.308750000000032 23.9375 30.4375 C23.28910156249998 29.896093749999977 22.640703125000016 29.354687499999955 21.97265625 28.796875 C20 27 20 27 18.43359375 25.078125 C15.686366039614995 21.74564827863071 14.005325966611622 20.200358047273085 9.66796875 19.3359375 C6.4526011715132086 19.092085137601202 3.2244298161304528 19.03324154449615 0 19 C0 12.730000000000018 0 6.460000000000036 0 0 Z " fill="#000000" transform="translate(467,521)"/>
<path d="M0 0 C6.269999999999982 0 12.54000000000002 0 19 0 C19 6.27 19 12.54 19 19 C16.689999999999998 19.659999999999997 14.379999999999995 20.32 12 21 C10.00390625 22.7265625 10.00390625 22.7265625 8.5625 24.625 C8.068789062500002 25.256640625000003 7.5750781250000045 25.88828125 7.06640625 26.5390625 C6.714492187500014 27.021171875 6.362578125000027 27.50328125 6 28 C0.5445973678545215 27.170095349024848 -2.4978043908844825 22.955770836623074 -6 19 C-8 16.000000000000004 -8 16.000000000000004 -9 14 C-8.434101562500018 13.492109374999998 -7.8682031249999795 12.98421875 -7.28515625 12.4609375 C-6.551679687499984 11.772578125000003 -5.818203125000025 11.084218749999998 -5.0625 10.375 C-4.331601562499998 9.702109375 -3.6007031249999955 9.029218749999998 -2.84765625 8.3359375 C-1 6 -1 6 0 0 Z " fill="#000000" transform="translate(489,13)"/>
<path d="M0 0 C6.930000000000007 0 13.860000000000014 0 21 0 C21 6.269999999999982 21 12.539999999999964 21 19 C14.069999999999993 19 7.139999999999986 19 0 19 C0 12.730000000000018 0 6.460000000000036 0 0 Z " fill="#000000" transform="translate(297,1009)"/>
<path d="M0 0 C6.930000000000007 0 13.860000000000014 0 21 0 C21 6.27 21 12.54 21 19 C14.069999999999993 19 7.139999999999986 19 0 19 C0 12.73 0 6.460000000000001 0 0 Z " fill="#000000" transform="translate(297,13)"/>
<path d="M0 0 C3.813164779677578 1.5895628355564781 6.372783999436308 4.007606969059452 9.3125 6.875 C10.216132812500007 7.738671875000023 11.119765625000014 8.602343749999989 12.05078125 9.4921875 C14 12 14 12 14.140625 13.9609375 C12.415226710432961 17.045382387513712 9.973647881546611 19.33733497410924 7.4375 21.75 C7.177431640625002 22.003300781250005 7.177431640625002 22.003300781250005 5.861328125 23.28515625 C4.5808991592818415 24.530344051524082 3.2913244552298693 25.766115018067012 2 27 C-1.9028576672072006 25.413324219406434 -4.3352098189592425 22.86649518580498 -7.25 19.875 C-8.142031250000002 18.964921875000016 -9.034062500000005 18.054843749999975 -9.953125 17.1171875 C-10.628593749999993 16.418515624999998 -11.304062499999986 15.719843749999995 -12 15 C-10.429211850399923 11.317660567330961 -8.135668690105234 8.744538849440232 -5.4375 5.8125 C-4.6318359375 4.932070312500002 -3.826171875 4.0516406250000045 -2.99609375 3.14453125 C-0.9999999999999716 1 -0.9999999999999716 1 0 0 Z " fill="#000000" transform="translate(178,343)"/>
<path d="M0 0 C3.053698435155809 1.6259195866574032 5.030653309812877 3.857937272299182 7.359375 6.40234375 C7.82666015625 6.888964843749989 8.2939453125 7.375585937499977 8.775390625 7.876953125 C11.999346949316887 11.41520947502579 11.999346949316887 11.41520947502579 12.1875 14.0859375 C10.446868782225692 17.14396426273362 8.010483146891225 19.436729632732693 5.484375 21.83984375 C5.224306640625002 22.093144531250005 5.224306640625002 22.093144531250005 3.908203125 23.375 C2.6277741592818415 24.620187801524082 1.3381994552298622 25.855958768067012 0.046875 27.08984375 C-4.872484021573435 22.973645385010002 -9.479604562896284 18.68574012611265 -13.953125 14.08984375 C-11.855315065390116 10.323169043128587 -9.519767201037055 7.305108071471523 -6.515625 4.21484375 C-5.753789062499997 3.4130468750000205 -4.991953125000002 2.611249999999984 -4.20703125 1.78515625 C-1.953125 0.08984375 -1.953125 0.08984375 0 0 Z " fill="#000000" transform="translate(53.953125,474.91015625)"/>
<path d="M0 0 C3.813164779677578 1.5895628355564213 6.372783999436308 4.007606969059452 9.3125 6.875 C10.216132812500007 7.738671875000023 11.119765625000014 8.602343750000045 12.05078125 9.4921875 C14 12 14 12 14.140625 13.9609375 C12.415226710432961 17.045382387513655 9.973647881546611 19.33733497410924 7.4375 21.75 C7.177431640625002 22.003300781250005 7.177431640625002 22.003300781250005 5.861328125 23.28515625 C4.5808991592818415 24.530344051524025 3.2913244552298693 25.766115018067012 2 27 C-1.7848729912440433 25.454799558620493 -4.021995358102743 23.129371125226726 -6.75 20.125 C-7.549218749999994 19.261328124999977 -8.348437499999989 18.397656249999955 -9.171875 17.5078125 C-11 15 -11 15 -11 11 C-9.216650222362517 8.927145388330473 -7.483728336820917 7.107003676483487 -5.5 5.25 C-4.975351562500009 4.743398437499991 -4.45070312499999 4.236796874999982 -3.91015625 3.71484375 C-2.615586366352005 2.467349134848291 -1.3089223997945965 1.2324269348715688 0 0 Z " fill="#000000" transform="translate(176,846)"/>
<path d="M0 0 C6.600000000000023 0 13.199999999999989 0 20 0 C20 6.269999999999982 20 12.539999999999964 20 19 C13.399999999999977 19 6.800000000000011 19 0 19 C0 12.730000000000018 0 6.460000000000036 0 0 Z " fill="#000000" transform="translate(393,1009)"/>
<path d="M0 0 C6.599999999999994 0 13.199999999999989 0 20 0 C20 6.269999999999982 20 12.539999999999964 20 19 C13.400000000000006 19 6.800000000000011 19 0 19 C0 12.730000000000018 0 6.460000000000036 0 0 Z " fill="#000000" transform="translate(202,1009)"/>
<path d="M0 0 C6.599999999999994 0 13.200000000000003 0 20 0 C20 6.269999999999982 20 12.539999999999964 20 19 C13.400000000000006 19 6.799999999999997 19 0 19 C0 12.730000000000018 0 6.460000000000036 0 0 Z " fill="#000000" transform="translate(106,1009)"/>
<path d="M0 0 C6.269999999999982 0 12.54000000000002 0 19 0 C19 6.600000000000023 19 13.199999999999989 19 20 C12.730000000000018 20 6.4599999999999795 20 0 20 C0 13.399999999999977 0 6.800000000000011 0 0 Z " fill="#000000" transform="translate(489,284)"/>
<path d="M0 0 C6.600000000000023 0 13.199999999999989 0 20 0 C20 6.27 20 12.54 20 19 C13.399999999999977 19 6.800000000000011 19 0 19 C0 12.73 0 6.460000000000001 0 0 Z " fill="#000000" transform="translate(393,13)"/>
<path d="M0 0 C6.599999999999994 0 13.199999999999989 0 20 0 C20 6.27 20 12.54 20 19 C13.400000000000006 19 6.800000000000011 19 0 19 C0 12.73 0 6.460000000000001 0 0 Z " fill="#000000" transform="translate(202,13)"/>
<path d="M0 0 C6.599999999999994 0 13.200000000000003 0 20 0 C20 6.27 20 12.54 20 19 C13.400000000000006 19 6.799999999999997 19 0 19 C0 12.73 0 6.460000000000001 0 0 Z " fill="#000000" transform="translate(106,13)"/>
<path d="M0 0 C3.813164779677564 1.5895628355564781 6.372783999436308 4.007606969059452 9.3125 6.875 C10.216132812500007 7.738671875000023 11.119765625 8.602343749999989 12.05078125 9.4921875 C14 12 14 12 14.140625 13.9609375 C12.415226710432961 17.045382387513712 9.973647881546611 19.33733497410924 7.4375 21.75 C7.177431640625002 22.003300781250005 7.177431640625002 22.003300781250005 5.861328125 23.28515625 C4.5808991592818415 24.530344051524082 3.2913244552298693 25.766115018067012 2 27 C-2.037215612531611 25.43416403813029 -4.470705823221039 22.558261353636397 -7.25 19.375 C-7.708906249999998 18.859375 -8.167812499999997 18.34375 -8.640625 17.8125 C-9.765922959690812 16.546539795347826 -10.883721766400924 15.273920579565356 -12 14 C-8.341610257367677 8.888632770932134 -4.553880680348996 4.3370292193799855 0 0 Z " fill="#000000" transform="translate(115,409)"/>
<path d="M0 0 C6.27 0 12.54 0 19 0 C19.020625 3.1143749999999955 19.04125 6.228749999999991 19.0625 9.4375 C19.07160400390625 10.420329589843732 19.0807080078125 11.40315917968752 19.090087890625 12.415771484375 C19.09258544921875 13.184777832031273 19.0950830078125 13.953784179687489 19.09765625 14.74609375 C19.100274658203126 15.141473388671898 19.100274658203126 15.141473388671898 19.113525390625 17.142333984375 C19 19 19 19 18 20 C16.657325869930023 20.086318743326785 15.310256781548766 20.10706473273808 13.96484375 20.09765625 C13.600643310546875 20.096407470703127 13.600643310546875 20.096407470703127 11.757568359375 20.090087890625 C10.82694580078125 20.08098388671874 9.8963232421875 20.071879882812482 8.9375 20.0625 C7.462812499999998 20.052187500000002 7.462812499999998 20.052187500000002 0 20 C0 13.399999999999977 0 6.800000000000011 0 0 Z " fill="#000000" transform="translate(12,284)"/>
<path d="M0 0 C4.449260523335198 0.4131456200240109 6.8410010446054486 3.5046152712978937 9.75 6.5625 C10.256601562499995 7.0826367187499955 10.763203125000004 7.602773437499991 11.28515625 8.138671875 C12.530344051524082 9.419100840718215 13.766115018067019 10.70867554477013 15 12 C13.410437164443543 15.81316477967755 10.992393030940555 18.372783999436365 8.125 21.3125 C7.261328124999999 22.21613281249995 6.397656249999997 23.119765625000014 5.5078125 24.05078125 C3 26 3 26 0.90234375 26 C-1.335941233120586 24.823406661850413 -2.81367159675807 23.514575759091713 -4.5625 21.6875 C-4.862851562499998 21.37425781249999 -4.862851562499998 21.37425781249999 -6.3828125 19.7890625 C-8.053433690543208 17.940887366500533 -9.598318382889715 16.061296495750412 -11 14 C-9.422190772231602 10.289547530302912 -7.0929675201614515 7.700936164746736 -4.375 4.75 C-3.5577343750000026 3.8579687500000546 -2.740468749999998 2.9659374999999955 -1.8984375 2.046875 C-1.271953124999996 1.37140624999995 -0.6454687499999991 0.6959375000000136 0 0 Z " fill="#000000" transform="translate(49,974)"/>
<path d="M0 0 C3.2675674079364967 1.5049548814331501 5.48650164748841 3.998175452281089 7.9296875 6.56640625 C8.436289062500009 7.0865429687499955 8.942890625000018 7.606679687499991 9.46484375 8.142578125 C10.710031551524082 9.423007090718215 11.945802518067012 10.71258179477013 13.1796875 12.00390625 C11.593011719406434 15.906763917207172 9.046182685804979 18.339116068959243 6.0546875 21.25390625 C5.144609375000016 22.145937499999945 4.234531249999975 23.037968750000005 3.296875 23.95703125 C2.5982031249999977 24.63250000000005 1.8995312499999955 25.307968749999986 1.1796875 26.00390625 C-2.894072809925717 24.393800984648465 -5.585383187066952 21.465683544739136 -8.5703125 18.37890625 C-9.076914062500009 17.86328125 -9.583515625000018 17.34765625 -10.10546875 16.81640625 C-11.34835151702373 15.55007286473051 -12.584965260487763 14.27759185211778 -13.8203125 13.00390625 C-11.850749822914565 10.643224743422365 -9.846776080745144 8.315916971668344 -7.8203125 6.00390625 C-7.294375000000002 5.398046874999977 -6.7684375000000045 4.7921874999999545 -6.2265625 4.16796875 C-2.395979758888359 0.005141587465459452 -2.395979758888359 0.005141587465459452 0 0 Z " fill="#000000" transform="translate(303.8203125,718.99609375)"/>
<path d="M0 0 C3.8131647796775496 1.5895628355564213 6.372783999436308 4.007606969059452 9.3125 6.875 C10.216132812500007 7.738671875000023 11.119765625000014 8.602343750000045 12.05078125 9.4921875 C14 12 14 12 14.140625 13.9609375 C12.415226710432933 17.045382387513655 9.973647881546583 19.33733497410924 7.4375 21.75 C7.177431640625002 22.003300781250005 7.177431640625002 22.003300781250005 5.861328125 23.28515625 C4.5808991592818415 24.530344051524025 3.2913244552298693 25.766115018067012 2 27 C-2.9193590215734275 22.883801635009945 -7.52647956289627 18.59589637611259 -12 14 C-10.413324219406434 10.097142332792828 -7.866495185804979 7.6647901810407575 -4.875 4.75 C-3.964921875000016 3.8579687500000546 -3.054843749999975 2.9659374999999955 -2.1171875 2.046875 C-1.4185156249999977 1.37140624999995 -0.7198437499999955 0.6959375000000136 0 0 Z " fill="#000000" transform="translate(429,591)"/>
<path d="M0 0 C3.7343728700428187 0.5680925171429863 5.456300027673819 2.0785194888679825 8.0625 4.75 C8.734101562499973 5.425468749999993 9.405703125000002 6.100937499999986 10.09765625 6.796875 C12.059156267001413 9.068509516609424 13.533606931403597 11.386988052220687 15 14 C14.301328124999998 14.687070312499998 13.602656249999995 15.374140624999995 12.8828125 16.08203125 C11.972734375000016 16.983085937499993 11.062656249999975 17.884140624999986 10.125 18.8125 C9.220078124999986 19.70582031250001 8.315156249999973 20.59914062499999 7.3828125 21.51953125 C5 24 5 24 3 27 C-0.8131647796775496 25.41043716444355 -3.372783999436308 22.992393030940548 -6.3125 20.125 C-7.216132812500007 19.261328125000006 -8.119765625000014 18.39765625000001 -9.05078125 17.5078125 C-11 15 -11 15 -11.07421875 12.96875 C-9.607396499155982 10.280464856634921 -7.721591141082058 8.477075161973204 -5.5 6.375 C-1.0845921450151081 2.1691842900302163 -1.0845921450151081 2.1691842900302163 0 0 Z " fill="#000000" transform="translate(366,146)"/>
<path d="M0 0 C4.037215612531611 1.565835961869709 6.470705823221039 4.4417386463636035 9.25 7.625 C9.708906249999984 8.140625 10.167812499999997 8.65625 10.640625 9.1875 C11.765922959690812 10.453460204652174 12.883721766400924 11.726079420434644 14 13 C12.413324219406405 16.90285766720723 9.866495185805007 19.335209818959243 6.875 22.25 C5.964921875000016 23.142031250000002 5.054843750000003 24.034062500000005 4.1171875 24.953125 C3.767851562499999 25.290859375000025 3.767851562499999 25.290859375000025 2 27 C-1.9028576672072006 25.413324219406434 -4.3352098189592425 22.86649518580498 -7.25 19.875 C-8.142031250000002 18.964921875000016 -9.034062500000005 18.054843749999975 -9.953125 17.1171875 C-10.628593749999993 16.418515624999998 -11.304062499999986 15.719843749999995 -12 15 C-10.384625563108898 11.100820324745598 -7.720751273664916 8.287062283659168 -4.875 5.25 C-4.407070312499997 4.743398437499991 -3.939140624999993 4.236796874999982 -3.45703125 3.71484375 C-2.3087345885702746 2.4728085855964537 -1.15491328140493 1.2358850612820333 0 0 Z " fill="#000000" transform="translate(241,277)"/>
<path d="M0 0 C4.9193590215734275 4.116198364989998 9.52647956289627 8.40410362388738 14 13 C12.389894734648408 17.07376030992569 9.461777294739193 19.765070687066952 6.375 22.75 C5.859375 23.25660156250001 5.34375 23.76320312499999 4.8125 24.28515625 C3.5461666147305095 25.528039017023758 2.27368560211778 26.764652760487763 1 28 C-3.8804992469311514 24.058058300555615 -8.058058300555615 19.88049924693115 -12 15 C-10.384625563108898 11.100820324745627 -7.720751273664916 8.287062283659196 -4.875 5.25 C-4.407070312500025 4.743398437499991 -3.939140624999993 4.23679687500001 -3.45703125 3.71484375 C-2.308734588570303 2.4728085855964252 -1.1549132814049585 1.2358850612820333 0 0 Z " fill="#000000" transform="translate(304,211)"/>
<path d="M0 0 C3.366066018914296 1.1220220063047606 4.194812693409062 2.0927402068900562 6.4375 4.75 C7.0459374999999795 5.466718749999998 7.654375000000016 6.183437499999997 8.28125 6.921875 C10.215156011121962 9.260143177083833 12.131844276563015 11.608760674000678 14 14 C13.468906249999975 14.519492187499992 12.937812500000007 15.038984374999998 12.390625 15.57421875 C8.68949646719119 19.228070093521126 5.128415593465206 22.828779208713087 2 27 C-1.76543193976147 26.45380547686976 -3.188175364292988 25.025181769789754 -5.5625 22.125 C-8.931715236847822 18.057929491377436 -8.931715236847822 18.057929491377436 -10.77734375 16.4921875 C-12 15 -12 15 -12.03515625 13.171875 C-10.488916125335038 9.927688172401005 -8.00549737641876 7.692963796293526 -5.4375 5.25 C-4.9173632812500045 4.743398437500005 -4.397226562500009 4.236796874999996 -3.861328125 3.71484375 C-2.5808991592818415 2.4696559484759177 -1.2913244552298693 1.233884981932988 0 0 Z " fill="#000000" transform="translate(430,80)"/>
<path d="M0 0 C3.9028576672072006 1.5866757805936231 6.335209818959228 4.133504814195021 9.25 7.125 C10.142031250000002 8.035078125000041 11.034062500000005 8.945156249999968 11.953125 9.8828125 C12.628593749999993 10.581484374999945 13.3040625 11.280156250000005 14 12 C12.41043716444355 15.81316477967755 9.992393030940548 18.372783999436365 7.125 21.3125 C6.261328125000006 22.21613281249995 5.397656249999997 23.119765625000014 4.5078125 24.05078125 C2 26 2 26 0.0078125 26.140625 C-2.9785326945863204 24.444102048989862 -5.039834083730895 22.010672818214516 -7.25 19.4375 C-7.708906249999998 18.917363281250005 -8.167812499999997 18.39722656250001 -8.640625 17.861328125 C-9.768214295738048 16.581044445464045 -10.88517314776314 15.291412021579731 -12 14 C-10.41332421940642 10.097142332792828 -7.866495185804993 7.6647901810407575 -4.875 4.75 C-3.9649218750000017 3.8579687500000546 -3.0548437500000034 2.9659374999999955 -2.1171875 2.046875 C-1.4185156249999977 1.37140624999995 -0.7198437499999955 0.6959375000000136 0 0 Z " fill="#000000" transform="translate(113,910)"/>
<path d="M0 0 C2.355430834535696 1.9785619010099254 4.687034052980636 3.972699169943212 7 6 C7.605859374999994 6.525937500000055 8.211718749999989 7.0518749999999955 8.8359375 7.59375 C10.5 9.125 10.5 9.125 13 12 C12.992030340642373 15.713861260647604 10.614509007019393 17.75016785251057 8.099609375 20.26171875 C7.592363281250016 20.75285156250004 7.085117187500003 21.243984374999968 6.5625 21.75 C6.059121093750008 22.25660156250001 5.555742187500016 22.763203125000018 5.037109375 23.28515625 C1.2671938173854471 27 1.2671938173854471 27 -1 27 C-2.55078125 25.4609375 -2.55078125 25.4609375 -4.3125 23.375 C-4.886132812499994 22.702109374999964 -5.459765624999989 22.02921875000004 -6.05078125 21.3359375 C-8.368502178845631 18.558388170441503 -10.684106005733383 15.779072793119894 -13 13 C-8.710000000000008 8.710000000000036 -4.4199999999999875 4.419999999999959 0 0 Z " fill="#000000" transform="translate(240,782)"/>
<path d="M0 0 C3.902857667207229 1.5866757805936231 6.3352098189592425 4.133504814195021 9.25 7.125 C10.142031250000002 8.035078125000041 11.034062500000005 8.945156249999968 11.953125 9.8828125 C12.628593749999993 10.581484374999945 13.304062499999986 11.280156250000005 14 12 C12.413324219406434 15.902857667207172 9.866495185804979 18.335209818959243 6.875 21.25 C5.964921875000016 22.142031249999945 5.054843749999975 23.034062500000005 4.1171875 23.953125 C3.7678515625000273 24.290859374999968 3.7678515625000273 24.290859374999968 2 26 C-1.902857667207229 24.413324219406377 -4.3352098189592425 21.86649518580498 -7.25 18.875 C-8.142031250000002 17.96492187499996 -9.034062500000005 17.054843750000032 -9.953125 16.1171875 C-10.628593749999993 15.418515625000055 -11.304062499999986 14.719843749999995 -12 14 C-10.413324219406434 10.097142332792828 -7.866495185804979 7.6647901810407575 -4.875 4.75 C-3.964921875000016 3.8579687500000546 -3.054843749999975 2.9659374999999955 -2.1171875 2.046875 C-1.4185156249999977 1.37140624999995 -0.7198437499999955 0.6959375000000136 0 0 Z " fill="#000000" transform="translate(366,655)"/>
<path d="M0 0 C6.269999999999982 0 12.54000000000002 0 19 0 C19 6.269999999999982 19 12.539999999999964 19 19 C12.730000000000018 19 6.4599999999999795 19 0 19 C0 12.730000000000018 0 6.460000000000036 0 0 Z " fill="#000000" transform="translate(489,1009)"/>
<path d="M0 0 C6.27 0 12.54 0 19 0 C19 6.269999999999982 19 12.539999999999964 19 19 C12.73 19 6.460000000000001 19 0 19 C0 12.730000000000018 0 6.460000000000036 0 0 Z " fill="#000000" transform="translate(12,1009)"/>
<path d="M0 0 C6.269999999999982 0 12.54000000000002 0 19 0 C19 6.269999999999982 19 12.539999999999964 19 19 C12.730000000000018 19 6.4599999999999795 19 0 19 C0 12.730000000000018 0 6.460000000000036 0 0 Z " fill="#000000" transform="translate(489,918)"/>
<path d="M0 0 C6.27 0 12.54 0 19 0 C19 6.269999999999982 19 12.539999999999964 19 19 C12.73 19 6.460000000000001 19 0 19 C0 12.730000000000018 0 6.460000000000036 0 0 Z " fill="#000000" transform="translate(12,918)"/>
<path d="M0 0 C6.269999999999982 0 12.54000000000002 0 19 0 C19 6.269999999999982 19 12.539999999999964 19 19 C12.730000000000018 19 6.4599999999999795 19 0 19 C0 12.730000000000018 0 6.460000000000036 0 0 Z " fill="#000000" transform="translate(489,828)"/>
<path d="M0 0 C6.27 0 12.54 0 19 0 C19 6.269999999999982 19 12.539999999999964 19 19 C12.73 19 6.460000000000001 19 0 19 C0 12.730000000000018 0 6.460000000000036 0 0 Z " fill="#000000" transform="translate(12,828)"/>
<path d="M0 0 C6.269999999999982 0 12.54000000000002 0 19 0 C19 6.269999999999982 19 12.539999999999964 19 19 C12.730000000000018 19 6.4599999999999795 19 0 19 C0 12.730000000000018 0 6.460000000000036 0 0 Z " fill="#000000" transform="translate(489,737)"/>
<path d="M0 0 C6.27 0 12.54 0 19 0 C19 6.269999999999982 19 12.539999999999964 19 19 C12.73 19 6.460000000000001 19 0 19 C0 12.730000000000018 0 6.460000000000036 0 0 Z " fill="#000000" transform="translate(12,737)"/>
<path d="M0 0 C6.269999999999982 0 12.54000000000002 0 19 0 C19 6.269999999999982 19 12.539999999999964 19 19 C12.730000000000018 19 6.4599999999999795 19 0 19 C0 12.730000000000018 0 6.460000000000036 0 0 Z " fill="#000000" transform="translate(489,647)"/>
<path d="M0 0 C6.27 0 12.54 0 19 0 C19 6.269999999999982 19 12.539999999999964 19 19 C12.73 19 6.460000000000001 19 0 19 C0 12.730000000000018 0 6.460000000000036 0 0 Z " fill="#000000" transform="translate(12,647)"/>
<path d="M0 0 C6.269999999999982 0 12.54000000000002 0 19 0 C19 6.269999999999982 19 12.539999999999964 19 19 C12.730000000000018 19 6.4599999999999795 19 0 19 C0 12.730000000000018 0 6.460000000000036 0 0 Z " fill="#000000" transform="translate(489,556)"/>
<path d="M0 0 C6.27 0 12.54 0 19 0 C19 6.269999999999982 19 12.539999999999964 19 19 C12.73 19 6.460000000000001 19 0 19 C0 12.730000000000018 0 6.460000000000036 0 0 Z " fill="#000000" transform="translate(12,556)"/>
<path d="M0 0 C6.269999999999982 0 12.54000000000002 0 19 0 C19 6.269999999999982 19 12.539999999999964 19 19 C12.730000000000018 19 6.4599999999999795 19 0 19 C0 12.730000000000018 0 6.460000000000036 0 0 Z " fill="#000000" transform="translate(378,521)"/>
<path d="M0 0 C6.27000000000001 0 12.539999999999992 0 19 0 C19 6.269999999999982 19 12.539999999999964 19 19 C12.72999999999999 19 6.460000000000008 19 0 19 C0 12.730000000000018 0 6.460000000000036 0 0 Z " fill="#000000" transform="translate(199,521)"/>
<path d="M0 0 C6.269999999999996 0 12.540000000000006 0 19 0 C19 6.269999999999982 19 12.539999999999964 19 19 C12.730000000000004 19 6.459999999999994 19 0 19 C0 12.730000000000018 0 6.460000000000036 0 0 Z " fill="#000000" transform="translate(110,521)"/>
<path d="M0 0 C6.27 0 12.54 0 19 0 C19 6.269999999999982 19 12.539999999999964 19 19 C12.730000000000004 19 6.460000000000001 19 0 19 C0 12.730000000000018 0 6.460000000000036 0 0 Z " fill="#000000" transform="translate(20,521)"/>
<path d="M0 0 C6.269999999999982 0 12.54000000000002 0 19 0 C19 6.269999999999982 19 12.54000000000002 19 19 C12.730000000000018 19 6.4599999999999795 19 0 19 C0 12.730000000000018 0 6.4599999999999795 0 0 Z " fill="#000000" transform="translate(489,466)"/>
<path d="M0 0 C6.27 0 12.54 0 19 0 C19 6.269999999999982 19 12.54000000000002 19 19 C12.73 19 6.460000000000001 19 0 19 C0 12.730000000000018 0 6.4599999999999795 0 0 Z " fill="#000000" transform="translate(12,466)"/>
<path d="M0 0 C6.269999999999982 0 12.54000000000002 0 19 0 C19 6.269999999999982 19 12.54000000000002 19 19 C12.730000000000018 19 6.4599999999999795 19 0 19 C0 12.730000000000018 0 6.4599999999999795 0 0 Z " fill="#000000" transform="translate(489,375)"/>
<path d="M0 0 C6.27 0 12.54 0 19 0 C19 6.269999999999982 19 12.54000000000002 19 19 C12.73 19 6.460000000000001 19 0 19 C0 12.730000000000018 0 6.4599999999999795 0 0 Z " fill="#000000" transform="translate(12,375)"/>
<path d="M0 0 C6.269999999999982 0 12.54000000000002 0 19 0 C19 6.27000000000001 19 12.539999999999992 19 19 C12.730000000000018 19 6.4599999999999795 19 0 19 C0 12.72999999999999 0 6.460000000000008 0 0 Z " fill="#000000" transform="translate(489,194)"/>
<path d="M0 0 C6.27 0 12.54 0 19 0 C19 6.27000000000001 19 12.539999999999992 19 19 C12.73 19 6.460000000000001 19 0 19 C0 12.72999999999999 0 6.460000000000008 0 0 Z " fill="#000000" transform="translate(12,194)"/>
<path d="M0 0 C6.269999999999982 0 12.54000000000002 0 19 0 C19 6.269999999999996 19 12.540000000000006 19 19 C12.730000000000018 19 6.4599999999999795 19 0 19 C0 12.730000000000004 0 6.459999999999994 0 0 Z " fill="#000000" transform="translate(489,103)"/>
<path d="M0 0 C6.27 0 12.54 0 19 0 C19 6.269999999999996 19 12.540000000000006 19 19 C12.73 19 6.460000000000001 19 0 19 C0 12.730000000000004 0 6.459999999999994 0 0 Z " fill="#000000" transform="translate(12,103)"/>
<path d="M0 0 C6.27 0 12.54 0 19 0 C19 6.27 19 12.54 19 19 C12.73 19 6.460000000000001 19 0 19 C0 12.73 0 6.460000000000001 0 0 Z " fill="#000000" transform="translate(12,13)"/>
<path d="M0 0 C5.939999999999998 0 11.879999999999995 0 18 0 C18 6.269999999999982 18 12.539999999999964 18 19 C12.060000000000002 19 6.1200000000000045 19 0 19 C0 12.730000000000018 0 6.460000000000036 0 0 Z " fill="#000000" transform="translate(289,521)"/>
</svg>
