<svg width="16" height="16" viewBox="0 0 16 16" fill="none" xmlns="http://www.w3.org/2000/svg">
<path d="M8 15C11.866 15 15 11.866 15 8C15 4.13401 11.866 1 8 1C4.13401 1 1 4.13401 1 8C1 11.866 4.13401 15 8 15Z" stroke="#1C55AE" stroke-linecap="round" stroke-linejoin="round"/>
<path d="M8.49781 9.81322C8.43939 10.1323 8.18385 10.3975 7.85952 10.3975C7.53279 10.3975 7.26239 10.1298 7.30059 9.8053C7.31832 9.65474 7.3428 9.51993 7.37402 9.40088C7.44596 9.13851 7.56234 8.89941 7.72314 8.68359C7.88395 8.46777 8.09766 8.22233 8.36426 7.94727C8.55892 7.74837 8.73665 7.56217 8.89746 7.38867C9.0625 7.21094 9.1958 7.02051 9.29736 6.81738C9.39893 6.61003 9.44971 6.36247 9.44971 6.07471C9.44971 5.78271 9.39681 5.53092 9.29102 5.31934C9.18945 5.10775 9.03711 4.94482 8.83398 4.83057C8.63509 4.71631 8.38753 4.65918 8.09131 4.65918C7.84587 4.65918 7.61312 4.70361 7.39307 4.79248C7.17301 4.88135 6.99528 5.01888 6.85986 5.20508C6.82417 5.25304 6.79304 5.30497 6.76646 5.36087C6.62887 5.65024 6.39304 5.92236 6.07262 5.92236C5.74488 5.92236 5.47106 5.6497 5.55081 5.33181C5.60976 5.09687 5.70333 4.88323 5.83154 4.69092C6.06429 4.34814 6.37744 4.08577 6.771 3.90381C7.16455 3.72184 7.60466 3.63086 8.09131 3.63086C8.62874 3.63086 9.08577 3.72819 9.4624 3.92285C9.84326 4.11751 10.1331 4.39681 10.332 4.76074C10.5309 5.12044 10.6304 5.54785 10.6304 6.04297C10.6304 6.42383 10.5521 6.77507 10.3955 7.09668C10.2432 7.41406 10.0464 7.7124 9.80518 7.9917C9.56396 8.271 9.30794 8.5376 9.03711 8.7915C8.80436 9.00732 8.64779 9.25065 8.56738 9.52148C8.53928 9.61615 8.51609 9.71339 8.49781 9.81322ZM7.21533 12.4097C7.21533 12.2192 7.27458 12.0584 7.39307 11.9272C7.51156 11.7961 7.68294 11.7305 7.90723 11.7305C8.13574 11.7305 8.30924 11.7961 8.42773 11.9272C8.54622 12.0584 8.60547 12.2192 8.60547 12.4097C8.60547 12.5916 8.54622 12.7482 8.42773 12.8794C8.30924 13.0106 8.13574 13.0762 7.90723 13.0762C7.68294 13.0762 7.51156 13.0106 7.39307 12.8794C7.27458 12.7482 7.21533 12.5916 7.21533 12.4097Z" fill="#1C55AE"/>
</svg>
