<svg width="16" height="16" viewBox="0 0 16 16" fill="none" xmlns="http://www.w3.org/2000/svg">
<path d="M9.33301 2V4.66667C9.33301 4.84348 9.40325 5.01305 9.52827 5.13807C9.65329 5.2631 9.82286 5.33333 9.99967 5.33333H12.6663" stroke="#009646" stroke-linecap="round" stroke-linejoin="round"/>
<path d="M3.33301 5.33333V3.33333C3.33301 2.97971 3.47348 2.64057 3.72353 2.39052C3.97358 2.14048 4.31272 2 4.66634 2H9.33301L12.6663 5.33333V12.6667C12.6663 13.0203 12.5259 13.3594 12.2758 13.6095C12.0258 13.8595 11.6866 14 11.333 14H7.99967" stroke="#009646" stroke-linecap="round" stroke-linejoin="round"/>
<path d="M4 11.3334C5.10457 11.3334 6 10.4379 6 9.33337C6 8.2288 5.10457 7.33337 4 7.33337C2.89543 7.33337 2 8.2288 2 9.33337C2 10.4379 2.89543 11.3334 4 11.3334Z" stroke="#009646" stroke-linecap="round" stroke-linejoin="round"/>
<path d="M3 11.3334L2 14.6667L4 13.6667L6 14.6667L5 11.3334" stroke="#009646" stroke-linecap="round" stroke-linejoin="round"/>
</svg>
