<svg width="16" height="16" viewBox="0 0 16 16" fill="none" xmlns="http://www.w3.org/2000/svg">
<path d="M9.35695 4.66673L9.35695 6.66673L11.3569 6.66673L13.6903 4.3334C14.0468 5.07982 14.1631 5.9184 14.0232 6.73366C13.8833 7.54893 13.4941 8.30078 12.9092 8.88568C12.3243 9.47059 11.5725 9.85977 10.7572 9.99965C9.94195 10.1395 9.10337 10.0232 8.35695 9.66673L4.35695 13.6667C4.09173 13.9319 3.73202 14.0809 3.35695 14.0809C2.98188 14.0809 2.62217 13.9319 2.35695 13.6667C2.09173 13.4015 1.94274 13.0418 1.94274 12.6667C1.94274 12.2917 2.09173 11.9319 2.35695 11.6667L6.35695 7.66673C6.00046 6.92031 5.88415 6.08173 6.02403 5.26647C6.16391 4.4512 6.55309 3.69935 7.138 3.11445C7.7229 2.52954 8.47475 2.14036 9.29002 2.00048C10.1053 1.8606 10.9439 1.97691 11.6903 2.3334L9.35695 4.66673Z" stroke="#1C55AE" stroke-linecap="round" stroke-linejoin="round"/>
</svg>
