<svg width="16" height="16" viewBox="0 0 16 16" fill="none" xmlns="http://www.w3.org/2000/svg">
<path fill-rule="evenodd" clip-rule="evenodd" d="M9 4H1V12H9V4ZM1 3C0.447715 3 0 3.44772 0 4V12C0 12.5523 0.447716 13 1 13H9C9.55229 13 10 12.5523 10 12V4C10 3.44772 9.55228 3 9 3H1Z" fill="#1C55AE"/>
<path d="M4.99986 8.00771C5.83041 8.00771 6.50371 7.33441 6.50371 6.50386C6.50371 5.6733 5.83041 5 4.99986 5C4.1693 5 3.496 5.6733 3.496 6.50386C3.496 7.33441 4.1693 8.00771 4.99986 8.00771Z" fill="#009646"/>
<path d="M8 10.6762C8 9.67365 6.00257 9.17236 5 9.17236C3.99743 9.17236 2 9.67365 2 10.6762V11.1775H8V10.6762Z" fill="#009646"/>
<path fill-rule="evenodd" clip-rule="evenodd" d="M12 3.5C12.2761 3.5 12.5 3.72386 12.5 4L12.5 12C12.5 12.2761 12.2761 12.5 12 12.5C11.7239 12.5 11.5 12.2761 11.5 12L11.5 4C11.5 3.72386 11.7239 3.5 12 3.5Z" fill="#1C55AE"/>
<path fill-rule="evenodd" clip-rule="evenodd" d="M15 3.5C15.2761 3.5 15.5 3.72386 15.5 4L15.5 12C15.5 12.2761 15.2761 12.5 15 12.5C14.7239 12.5 14.5 12.2761 14.5 12L14.5 4C14.5 3.72386 14.7239 3.5 15 3.5Z" fill="#1C55AE"/>
</svg>
