<svg width="18" height="16" viewBox="0 0 18 16" fill="none" xmlns="http://www.w3.org/2000/svg">
<rect x="1" y="2.6001" width="13" height="13" rx="1" fill="white"/>
<path fill-rule="evenodd" clip-rule="evenodd" d="M14.627 0.813185C12.6241 2.17191 10.1725 4.51818 8.12078 7.03996C7.85824 7.36263 7.59268 7.68668 7.53063 7.76007L7.41782 7.89351L5.79129 6.75562C4.89668 6.12977 4.15251 5.61774 4.13754 5.61774C4.12257 5.61774 3.85996 5.86975 3.55393 6.17774L2.99756 6.73774L3.70575 7.71349C5.12605 9.67032 6.64367 11.8854 7.18461 12.7911C7.32768 13.0306 7.45504 13.2266 7.46763 13.2266C7.48022 13.2266 7.58507 13.0626 7.70062 12.8622C7.81621 12.6617 8.15072 12.1057 8.44402 11.6266C10.5392 8.20412 12.6933 5.18894 14.6083 2.99825C15.1471 2.3819 16.2804 1.22222 16.7511 0.805648L17.0178 0.56963L16.0025 0.569239L14.9872 0.568848L14.627 0.813185Z" fill="#009646"/>
<path d="M10.2088 3.02222H1.24878V15.1822H13.5866V6.32888" stroke="#909090" stroke-linecap="round" stroke-linejoin="round" stroke-dasharray="0.5 2"/>
</svg>
