<svg width="16" height="16" viewBox="0 0 16 16" fill="none" xmlns="http://www.w3.org/2000/svg">
<path d="M8.0048 2.6665C8.64512 2.6665 9.26994 2.8296 9.82511 3.13135V4.70654C9.81717 4.69839 9.80974 4.68921 9.80168 4.68115C9.32524 4.20509 8.67849 3.93799 8.0048 3.93799C7.33129 3.9381 6.68523 4.20522 6.2089 4.68115C5.73249 5.15734 5.46481 5.80363 5.46476 6.47705V7.11182H4.82902C4.53725 7.11188 4.248 7.16916 3.97843 7.28076C3.70878 7.39242 3.46412 7.55689 3.25773 7.76318C3.05134 7.96949 2.88701 8.21434 2.77531 8.48389C2.66367 8.75338 2.60636 9.04279 2.60636 9.33447C2.60643 9.62599 2.66374 9.91474 2.77531 10.1841C2.88701 10.4536 3.05135 10.6985 3.25773 10.9048C3.46412 11.1111 3.70878 11.2755 3.97843 11.3872C4.248 11.4988 4.53725 11.5561 4.82902 11.5562H11.1806C11.4725 11.5562 11.7624 11.4989 12.0321 11.3872C12.3018 11.2755 12.5465 11.1111 12.7528 10.9048C12.9592 10.6985 13.1236 10.4536 13.2353 10.1841C13.3468 9.91475 13.4042 9.62598 13.4042 9.33447C13.4042 9.0428 13.3469 8.75337 13.2353 8.48389C13.1236 8.21437 12.9592 7.96948 12.7528 7.76318C12.6819 7.69229 12.6048 7.62832 12.5253 7.56787V7.50732H14.1493C14.5375 8.14014 14.7158 8.88335 14.6523 9.62939C14.5781 10.4994 14.1805 11.3102 13.538 11.9019C12.8954 12.4934 12.0542 12.8231 11.1806 12.8257H4.82902C3.95323 12.8267 3.10918 12.4985 2.46379 11.9067C1.81835 11.3149 1.419 10.5026 1.34464 9.63037C1.27033 8.758 1.52631 7.88918 2.06242 7.19678C2.59852 6.50448 3.37572 6.039 4.23918 5.89209C4.37866 4.99381 4.8347 4.17499 5.52531 3.5835C6.21593 2.99209 7.09538 2.66661 8.0048 2.6665Z" fill="#3264C7"/>
<path d="M11.8916 5.44368H14.0361V6.8724H11.8916V9.01497H10.4619V6.8724H8.31934V5.44368H10.4619V3.30111H11.8916V5.44368Z" fill="#3264C7"/>
</svg>
