<svg width="18" height="16" viewBox="0 0 18 16" fill="none" xmlns="http://www.w3.org/2000/svg">
<path d="M5.79129 6.75562C4.89668 6.12977 4.15251 5.61774 4.13754 5.61774C4.12257 5.61774 3.85996 5.86975 3.55393 6.17774L2.99756 6.73774L3.70575 7.71349C5.11609 9.6566 6.62239 11.8543 7.17308 12.7718C7.20151 12.7252 7.23373 12.6709 7.26746 12.6124L7.26747 12.6124C7.30909 12.5403 7.3773 12.4249 7.46095 12.285M5.79129 6.75562L8.44402 11.6266M5.79129 6.75562L7.41782 7.89351L5.79129 6.75562ZM7.46095 12.285C7.51793 12.3762 7.5691 12.4597 7.61387 12.5347L7.61388 12.5347C7.66592 12.6218 7.7151 12.7018 7.75627 12.7669C7.90254 12.5184 8.18887 12.0434 8.44402 11.6266M7.46095 12.285C6.81371 11.2489 5.41627 9.21896 4.11041 7.41979L3.70738 7.7123L4.1104 7.41979L3.6521 6.78834L3.90861 6.53016C4.00969 6.42843 4.10549 6.33338 4.18843 6.25225C4.23788 6.28607 4.29228 6.32341 4.35113 6.3639C4.64952 6.56921 5.05811 6.85291 5.50468 7.16532L7.1312 8.3032L7.50506 8.56475L7.79964 8.21632L7.91246 8.08288L7.91246 8.08288C7.97827 8.00503 8.24736 7.67662 8.50862 7.35553L8.50863 7.35551C10.5394 4.85946 12.9562 2.55081 14.9077 1.22697C14.9077 1.22697 14.9077 1.22697 14.9077 1.22696L15.1407 1.06891L15.7522 1.06914C15.2267 1.59203 14.5968 2.25171 14.2318 2.66917L14.2318 2.66918C12.2928 4.88735 10.1224 7.92734 8.01758 11.3656L8.44402 11.6266M7.46095 12.285C7.61696 12.024 7.82666 11.6774 8.01758 11.3656L8.44402 11.6266M3.8911 6.05214C3.89097 6.05207 3.891 6.05209 3.89122 6.05222L3.8911 6.05214ZM7.72816 12.8002C7.73028 12.8015 7.73235 12.8028 7.73439 12.8041L7.46763 13.2266C7.45534 13.2266 7.33369 13.0399 7.19481 12.8081C7.20432 12.8019 7.21498 12.7953 7.22672 12.7888C7.24634 12.7779 7.27512 12.7637 7.31171 12.7517C7.34729 12.7399 7.40025 12.7269 7.46551 12.7266C7.46552 12.7266 7.46553 12.7266 7.46554 12.7266C7.46624 12.7266 7.46693 12.7266 7.46763 12.7266C7.54579 12.7266 7.60708 12.745 7.64331 12.7586C7.6811 12.7729 7.70996 12.789 7.72816 12.8002Z" stroke="#919191"/>
<path d="M10.2088 3.02222H1.24878V15.1822H13.5866V6.32888" stroke="#909090" stroke-linecap="round" stroke-linejoin="round" stroke-dasharray="0.5 2"/>
</svg>
