<svg width="33" height="33" viewBox="0 0 33 33" fill="none" xmlns="http://www.w3.org/2000/svg">
<g clip-path="url(#clip0_1951_3291)">
<circle cx="15.9995" cy="17" r="16" fill="white"/>
<path fill-rule="evenodd" clip-rule="evenodd" d="M16 31C23.732 31 30 24.732 30 17C30 9.26801 23.732 3 16 3C8.26801 3 2 9.26801 2 17C2 24.732 8.26801 31 16 31ZM16 33C24.8366 33 32 25.8366 32 17C32 8.16344 24.8366 1 16 1C7.16344 1 0 8.16344 0 17C0 25.8366 7.16344 33 16 33Z" fill="#A0A0A0"/>
<path fill-rule="evenodd" clip-rule="evenodd" d="M9.6 18.7391V22.8696C9.6 23.5965 9.912 24.2491 10.4 24.7035V26.1739C10.4 26.393 10.4843 26.6031 10.6343 26.758C10.7843 26.913 10.9878 27 11.2 27H12C12.2122 27 12.4157 26.913 12.5657 26.758C12.7157 26.6031 12.8 26.393 12.8 26.1739V25.3478H19.2V26.1739C19.2 26.393 19.2843 26.6031 19.4343 26.758C19.5843 26.913 19.7878 27 20 27H20.8C21.0122 27 21.2157 26.913 21.3657 26.758C21.5157 26.6031 21.6 26.393 21.6 26.1739V24.7035C22.088 24.2491 22.4 23.5965 22.4 22.8696V18.7391H9.6ZM18.7515 23.3327C18.9765 23.5651 19.2817 23.6957 19.6 23.6957C19.9183 23.6957 20.2235 23.5651 20.4485 23.3327C20.6736 23.1003 20.8 22.7852 20.8 22.4565C20.8 22.1279 20.6736 21.8127 20.4485 21.5803C20.2235 21.3479 19.9183 21.2174 19.6 21.2174C19.2817 21.2174 18.9765 21.3479 18.7515 21.5803C18.5264 21.8127 18.4 22.1279 18.4 22.4565C18.4 22.7852 18.5264 23.1003 18.7515 23.3327ZM11.5515 23.3327C11.7765 23.5651 12.0817 23.6957 12.4 23.6957C12.7183 23.6957 13.0235 23.5651 13.2485 23.3327C13.4736 23.1003 13.6 22.7852 13.6 22.4565C13.6 22.1279 13.4736 21.8127 13.2485 21.5803C13.0235 21.3479 12.7183 21.2174 12.4 21.2174C12.0817 21.2174 11.7765 21.3479 11.5515 21.5803C11.3264 21.8127 11.2 22.1279 11.2 22.4565C11.2 22.7852 11.3264 23.1003 11.5515 23.3327Z" fill="#4A4A4A"/>
<path fill-rule="evenodd" clip-rule="evenodd" d="M19.2 14.6087H12.8C11.9163 14.6087 11.2 15.3484 11.2 16.2609V17.913H20.8V16.2609C20.8 15.3484 20.0837 14.6087 19.2 14.6087ZM12.8 12.9565C11.0327 12.9565 9.6 14.4359 9.6 16.2609V19.5652H22.4V16.2609C22.4 14.4359 20.9673 12.9565 19.2 12.9565H12.8Z" fill="#4A4A4A"/>
<path fill-rule="evenodd" clip-rule="evenodd" d="M11.2 8C9.43269 8 8 9.47941 8 11.3043V19.5652H9.6V16.2609C9.6 14.4359 11.0327 12.9565 12.8 12.9565H19.2C20.9673 12.9565 22.4 14.4359 22.4 16.2609V19.5652H24V11.3043C24 9.47941 22.5673 8 20.8 8H11.2Z" fill="#4A4A4A"/>
<circle cx="28" cy="5" r="5" fill="#A0A0A0"/>
<circle cx="28" cy="5" r="4.5" stroke="white"/>
</g>
<defs>
<clipPath id="clip0_1951_3291">
<rect width="33" height="33" fill="white"/>
</clipPath>
</defs>
</svg>
