<svg width="16" height="16" viewBox="0 0 16 16" fill="none" xmlns="http://www.w3.org/2000/svg">
<g clip-path="url(#clip0_2404_1857)">
<path d="M1.5 11.5V5.75C1.5 4.23122 2.73122 3 4.25 3V3C5.76878 3 7 4.23122 7 5.75V11.75C7 13.2688 8.23122 14.5 9.75 14.5V14.5C11.2688 14.5 12.5 13.2688 12.5 11.75V11" stroke="#1C55AE" stroke-linecap="round"/>
<circle cx="1.5" cy="12.5" r="1.5" transform="rotate(90 1.5 12.5)" fill="#009646"/>
<path fill-rule="evenodd" clip-rule="evenodd" d="M15.7912 5.96014C15.6588 6.6029 15.3322 7.19328 14.8526 7.65662L12.4286 10L10.0046 7.65662C9.52497 7.19328 9.19833 6.6029 9.06596 5.96014C8.93358 5.31738 9.00142 4.65112 9.26089 4.04563C9.52036 3.44013 9.9598 2.92259 10.5237 2.55847C11.0875 2.19435 11.7504 2 12.4286 2C13.1067 2 13.7696 2.19435 14.3335 2.55847C14.8973 2.92259 15.3368 3.44013 15.5963 4.04563C15.8557 4.65112 15.9236 5.31738 15.7912 5.96014ZM12.4286 6.57143C13.0598 6.57143 13.5714 6.05975 13.5714 5.42857C13.5714 4.79739 13.0598 4.28571 12.4286 4.28571C11.7974 4.28571 11.2857 4.79739 11.2857 5.42857C11.2857 6.05975 11.7974 6.57143 12.4286 6.57143Z" fill="#009646"/>
</g>
<defs>
<clipPath id="clip0_2404_1857">
<rect width="16" height="16" fill="white"/>
</clipPath>
</defs>
</svg>
