<svg width="16" height="16" viewBox="0 0 16 16" fill="none" xmlns="http://www.w3.org/2000/svg">
<path d="M4 2C4 1.72386 3.77614 1.5 3.5 1.5C3.22386 1.5 3 1.72386 3 2L4 2ZM3 14C3 14.2761 3.22386 14.5 3.5 14.5C3.77614 14.5 4 14.2761 4 14H3ZM8.5 2C8.5 1.72386 8.27614 1.5 8 1.5C7.72386 1.5 7.5 1.72386 7.5 2L8.5 2ZM7.5 14C7.5 14.2761 7.72386 14.5 8 14.5C8.27614 14.5 8.5 14.2761 8.5 14H7.5ZM13 2C13 1.72386 12.7761 1.5 12.5 1.5C12.2239 1.5 12 1.72386 12 2H13ZM12 14C12 14.2761 12.2239 14.5 12.5 14.5C12.7761 14.5 13 14.2761 13 14H12ZM4.5 6.5C4.5 7.05228 4.05228 7.5 3.5 7.5V8.5C4.60457 8.5 5.5 7.60457 5.5 6.5H4.5ZM3.5 7.5C2.94771 7.5 2.5 7.05228 2.5 6.5H1.5C1.5 7.60457 2.39543 8.5 3.5 8.5V7.5ZM2.5 6.5C2.5 5.94771 2.94771 5.5 3.5 5.5V4.5C2.39543 4.5 1.5 5.39543 1.5 6.5H2.5ZM3.5 5.5C4.05228 5.5 4.5 5.94771 4.5 6.5H5.5C5.5 5.39543 4.60457 4.5 3.5 4.5V5.5ZM3 2L3 5H4L4 2L3 2ZM3 8L3 14H4L4 8H3ZM9 11C9 11.5523 8.55228 12 8 12V13C9.10457 13 10 12.1046 10 11H9ZM8 12C7.44772 12 7 11.5523 7 11H6C6 12.1046 6.89543 13 8 13V12ZM7 11C7 10.4477 7.44772 10 8 10V9C6.89543 9 6 9.89543 6 11H7ZM8 10C8.55229 10 9 10.4477 9 11H10C10 9.89543 9.10457 9 8 9V10ZM7.5 2L7.5 9.5H8.5L8.5 2L7.5 2ZM7.5 12.5L7.5 14H8.5L8.5 12.5H7.5ZM13.5 4.25C13.5 4.80228 13.0523 5.25 12.5 5.25V6.25C13.6046 6.25 14.5 5.35457 14.5 4.25H13.5ZM12.5 5.25C11.9477 5.25 11.5 4.80228 11.5 4.25H10.5C10.5 5.35457 11.3954 6.25 12.5 6.25V5.25ZM11.5 4.25C11.5 3.69771 11.9477 3.25 12.5 3.25V2.25C11.3954 2.25 10.5 3.14543 10.5 4.25H11.5ZM12.5 3.25C13.0523 3.25 13.5 3.69771 13.5 4.25H14.5C14.5 3.14543 13.6046 2.25 12.5 2.25V3.25ZM12 2V2.75H13V2H12ZM12 5.75V14H13V5.75H12Z" fill="#009646"/>
</svg>
