<svg width="16" height="16" viewBox="0 0 16 16" fill="none" xmlns="http://www.w3.org/2000/svg">
<path d="M3.46663 3H12.5334C12.6338 3.03523 12.7249 3.09298 12.7995 3.16883C12.8742 3.24467 12.9305 3.33661 12.9642 3.43759C12.9979 3.53857 13.008 3.64591 12.9937 3.7514C12.9795 3.85689 12.9413 3.95772 12.8821 4.04616L9.39488 7.8821V12.7642L6.60512 10.6719V7.8821L3.1179 4.04616C3.05869 3.95772 3.0205 3.85689 3.00626 3.7514C2.99203 3.64591 3.00213 3.53857 3.03579 3.43759C3.06945 3.33661 3.12578 3.24467 3.20045 3.16883C3.27513 3.09298 3.36618 3.03523 3.46663 3Z" stroke="#1C55AE" stroke-width="1.5" stroke-linecap="round" stroke-linejoin="round"/>
</svg>
