<svg width="16" height="16" viewBox="0 0 16 16" fill="none" xmlns="http://www.w3.org/2000/svg">
<path d="M16 10.246V7.40591L13.1988 4H10.0834V10.0586H8.13235C8.13235 10.0586 6.92682 10.0586 6.23608 10.0586C5.54537 10.0586 4.17846 10.0586 4.17846 10.0586H2V12.3042H4.17846C4.17849 13.2393 4.9336 14 5.86165 14C6.78973 14 7.54481 13.2393 7.54484 12.3042H11.3586C11.3587 13.2393 12.1138 14 13.0418 14C13.9699 14 14.725 13.2393 14.725 12.3042H16V11.3845V10.246ZM5.86165 13.3267C5.30201 13.3267 4.84677 12.8679 4.84677 12.3041C4.84677 11.7403 5.30198 11.2817 5.86165 11.2817C6.42132 11.2817 6.87653 11.7403 6.87653 12.3041C6.87653 12.868 6.42132 13.3267 5.86165 13.3267ZM13.0418 13.3267C12.4822 13.3267 12.027 12.8679 12.027 12.3041C12.027 11.7403 12.4822 11.2817 13.0418 11.2817C13.6015 11.2817 14.0567 11.7403 14.0567 12.3041C14.0567 12.868 13.6015 13.3267 13.0418 13.3267ZM14.2632 7.7088H13.9394H13.1938H12.6515H11.2673V5.40084H12.7553L14.5836 7.7088H14.2632Z" fill="#009646"/>
<rect x="1.5" y="3.5" width="7" height="5" stroke="#1C55AE" stroke-linecap="round"/>
</svg>
